<mxfile host="app.diagrams.net" modified="2023-09-26T01:54:52.117Z" agent="Mozilla/5.0 (Windows NT 10.0; Win64; x64) AppleWebKit/537.36 (KHTML, like Gecko) Chrome/116.0.0.0 Safari/537.36" etag="OhY_PQMa5xkxZPoZcdo4" version="21.8.2" type="device">
  <diagram name="Página-1" id="uyuWtyfZtdvTelt-T247">
    <mxGraphModel dx="1114" dy="610" grid="1" gridSize="10" guides="1" tooltips="1" connect="1" arrows="1" fold="1" page="1" pageScale="1" pageWidth="827" pageHeight="1169" math="0" shadow="0">
      <root>
        <mxCell id="0" />
        <mxCell id="1" parent="0" />
        <mxCell id="UfCnax8QUoo75nh_Yu82-1" value="" style="edgeStyle=orthogonalEdgeStyle;rounded=0;orthogonalLoop=1;jettySize=auto;html=1;" edge="1" parent="1" source="UfCnax8QUoo75nh_Yu82-2" target="UfCnax8QUoo75nh_Yu82-6">
          <mxGeometry relative="1" as="geometry" />
        </mxCell>
        <mxCell id="UfCnax8QUoo75nh_Yu82-2" value="inicio&lt;br&gt;" style="strokeWidth=2;html=1;shape=mxgraph.flowchart.terminator;whiteSpace=wrap;" vertex="1" parent="1">
          <mxGeometry x="330" y="10" width="100" height="60" as="geometry" />
        </mxCell>
        <mxCell id="UfCnax8QUoo75nh_Yu82-3" value="" style="edgeStyle=orthogonalEdgeStyle;rounded=0;orthogonalLoop=1;jettySize=auto;html=1;" edge="1" parent="1" source="UfCnax8QUoo75nh_Yu82-4" target="UfCnax8QUoo75nh_Yu82-9">
          <mxGeometry relative="1" as="geometry" />
        </mxCell>
        <mxCell id="UfCnax8QUoo75nh_Yu82-4" value="nome&amp;nbsp;&lt;br&gt;venda&lt;br&gt;meta&lt;br&gt;" style="html=1;strokeWidth=2;shape=manualInput;whiteSpace=wrap;rounded=1;size=26;arcSize=11;" vertex="1" parent="1">
          <mxGeometry x="220" y="280" width="300" height="140" as="geometry" />
        </mxCell>
        <mxCell id="UfCnax8QUoo75nh_Yu82-5" value="" style="edgeStyle=orthogonalEdgeStyle;rounded=0;orthogonalLoop=1;jettySize=auto;html=1;" edge="1" parent="1" source="UfCnax8QUoo75nh_Yu82-6" target="UfCnax8QUoo75nh_Yu82-4">
          <mxGeometry relative="1" as="geometry" />
        </mxCell>
        <mxCell id="UfCnax8QUoo75nh_Yu82-6" value="digite o nome do fucionaro&lt;br&gt;digite as vendas&lt;br&gt;digite a meta" style="strokeWidth=2;html=1;shape=mxgraph.flowchart.display;whiteSpace=wrap;" vertex="1" parent="1">
          <mxGeometry x="220" y="100" width="290" height="130" as="geometry" />
        </mxCell>
        <mxCell id="UfCnax8QUoo75nh_Yu82-7" style="edgeStyle=orthogonalEdgeStyle;rounded=0;orthogonalLoop=1;jettySize=auto;html=1;entryX=1;entryY=0.5;entryDx=0;entryDy=0;" edge="1" parent="1" source="UfCnax8QUoo75nh_Yu82-9" target="UfCnax8QUoo75nh_Yu82-10">
          <mxGeometry relative="1" as="geometry">
            <mxPoint x="670" y="886" as="targetPoint" />
            <Array as="points">
              <mxPoint x="660" y="535" />
              <mxPoint x="660" y="760" />
            </Array>
          </mxGeometry>
        </mxCell>
        <mxCell id="UfCnax8QUoo75nh_Yu82-8" value="" style="edgeStyle=orthogonalEdgeStyle;rounded=0;orthogonalLoop=1;jettySize=auto;html=1;" edge="1" parent="1" source="UfCnax8QUoo75nh_Yu82-9" target="UfCnax8QUoo75nh_Yu82-10">
          <mxGeometry relative="1" as="geometry" />
        </mxCell>
        <mxCell id="UfCnax8QUoo75nh_Yu82-9" value="ganhou(venda&amp;gt;meta)&lt;br&gt;ou&lt;br&gt;não ganhou( venda&amp;lt;meta)&amp;nbsp;" style="strokeWidth=2;html=1;shape=mxgraph.flowchart.decision;whiteSpace=wrap;" vertex="1" parent="1">
          <mxGeometry x="200" y="470" width="230" height="130" as="geometry" />
        </mxCell>
        <mxCell id="UfCnax8QUoo75nh_Yu82-15" value="" style="edgeStyle=orthogonalEdgeStyle;rounded=0;orthogonalLoop=1;jettySize=auto;html=1;" edge="1" parent="1" source="UfCnax8QUoo75nh_Yu82-10" target="UfCnax8QUoo75nh_Yu82-13">
          <mxGeometry relative="1" as="geometry" />
        </mxCell>
        <mxCell id="UfCnax8QUoo75nh_Yu82-10" value="nome=joão&lt;br&gt;venda=1000&lt;br&gt;meta=500" style="rounded=1;whiteSpace=wrap;html=1;absoluteArcSize=1;arcSize=14;strokeWidth=2;" vertex="1" parent="1">
          <mxGeometry x="240" y="720" width="180" height="100" as="geometry" />
        </mxCell>
        <mxCell id="UfCnax8QUoo75nh_Yu82-11" value="&lt;span style=&quot;color: rgb(0, 0, 0); font-family: Helvetica; font-size: 22px; font-style: normal; font-variant-ligatures: normal; font-variant-caps: normal; font-weight: 400; letter-spacing: normal; orphans: 2; text-align: center; text-indent: 0px; text-transform: none; widows: 2; word-spacing: 0px; -webkit-text-stroke-width: 0px; background-color: rgb(251, 251, 251); text-decoration-thickness: initial; text-decoration-style: initial; text-decoration-color: initial; float: none; display: inline !important;&quot;&gt;v&lt;/span&gt;" style="text;whiteSpace=wrap;html=1;fontSize=22;" vertex="1" parent="1">
          <mxGeometry x="240" y="660" width="40" height="40" as="geometry" />
        </mxCell>
        <mxCell id="UfCnax8QUoo75nh_Yu82-12" value="&lt;span style=&quot;color: rgb(0, 0, 0); font-family: Helvetica; font-size: 22px; font-style: normal; font-variant-ligatures: normal; font-variant-caps: normal; font-weight: 400; letter-spacing: normal; orphans: 2; text-align: center; text-indent: 0px; text-transform: none; widows: 2; word-spacing: 0px; -webkit-text-stroke-width: 0px; background-color: rgb(251, 251, 251); text-decoration-thickness: initial; text-decoration-style: initial; text-decoration-color: initial; float: none; display: inline !important;&quot;&gt;F&lt;/span&gt;" style="text;whiteSpace=wrap;html=1;fontSize=22;" vertex="1" parent="1">
          <mxGeometry x="600" y="490" width="40" height="40" as="geometry" />
        </mxCell>
        <mxCell id="UfCnax8QUoo75nh_Yu82-17" value="" style="edgeStyle=orthogonalEdgeStyle;rounded=0;orthogonalLoop=1;jettySize=auto;html=1;" edge="1" parent="1" source="UfCnax8QUoo75nh_Yu82-13" target="UfCnax8QUoo75nh_Yu82-14">
          <mxGeometry relative="1" as="geometry" />
        </mxCell>
        <mxCell id="UfCnax8QUoo75nh_Yu82-13" value="joão ganhou" style="strokeWidth=2;html=1;shape=mxgraph.flowchart.display;whiteSpace=wrap;" vertex="1" parent="1">
          <mxGeometry x="230" y="870" width="200" height="190" as="geometry" />
        </mxCell>
        <mxCell id="UfCnax8QUoo75nh_Yu82-14" value="fim" style="strokeWidth=2;html=1;shape=mxgraph.flowchart.terminator;whiteSpace=wrap;" vertex="1" parent="1">
          <mxGeometry x="290" y="1090" width="100" height="60" as="geometry" />
        </mxCell>
      </root>
    </mxGraphModel>
  </diagram>
</mxfile>
